<?xml version="1.0" standalone="no"?>
<svg id="Vector" width="49" height="49" viewBox="0 0 49 49" fill="none" xmlns="http://www.w3.org/2000/svg" style="max-width: 100%; max-height: 100%;">
<path d="M14.8648 20.0352L11.575 23.325L22.15 33.9L45.65 10.4L42.3602 7.11023L22.15 27.2023L14.8648 20.0352ZM43.3 24.5C43.3 34.8398 34.8397 43.3 24.5 43.3C14.1603 43.3 5.7 34.8398 5.7 24.5C5.7 14.1602 14.1602 5.7 24.5 5.7C26.2625 5.7 28.025 5.93523 29.6705 6.40511L33.3125 2.7625C30.6102 1.5875 27.6727 1 24.5 1C11.575 1 1 11.575 1 24.5C1 37.425 11.575 48 24.5 48C37.425 48 48 37.425 48 24.5H43.3Z" stroke="#039100" stroke-dasharray="0,0,0,319.5854797363281"><animate attributeType="XML" attributeName="stroke-dasharray" repeatCount="1" dur="2.5s" values="0,0,0,319.5854797363281; 
          0,159.79273986816406,159.79273986816406,0; 
          319.5854797363281,0,0,0" keyTimes="0; 0.5; 1" fill="freeze"></animate></path>
</svg>